<?xml version="1.0" encoding="iso-8859-1"?>
<!-- Generator: Adobe Illustrator 19.0.0, SVG Export Plug-In . SVG Version: 6.00 Build 0)  -->
<svg version="1.1" id="Layer_1" xmlns="http://www.w3.org/2000/svg" xmlns:xlink="http://www.w3.org/1999/xlink" x="0px" y="0px"
	 viewBox="0 0 512 512" style="enable-background:new 0 0 512 512;" xml:space="preserve">
<rect x="401.625" y="395.69" transform="matrix(-0.7071 0.7071 -0.7071 -0.7071 1049.5149 434.0163)" style="fill:#554431;" width="66.49" height="77.361"/>
<path style="fill:#5AAAE7;" d="M4.588,4.091c3.223-3.223,7.814-4.67,12.303-3.878l92.996,16.414
	c11.515,2.033,22.009,7.89,29.782,16.626l261.898,292.882c-12.861,12.861-25.721,25.721-38.582,38.582L3.542,5.272
	C3.867,4.863,4.213,4.466,4.588,4.091z"/>
<path style="fill:#78B9EB;" d="M33.75,139.174c-8.736-7.773-14.594-18.267-16.626-29.782L0.71,16.394
	C0.009,12.428,1.064,8.385,3.542,5.272l359.444,359.444c-12.287,12.287-24.574,24.574-36.86,36.86L33.75,139.174z"/>
<path style="fill:#957856;" d="M325.338,398.628l73.787-73.787c12.585-11.216,31.888-10.793,43.961,1.278
	c12.515,12.515,12.515,32.806,0,45.321l-71.149,71.149c-6.258,6.257-14.458,9.386-22.661,9.386s-16.403-3.129-22.661-9.386
	C314.544,430.517,314.121,411.212,325.338,398.628z"/>
<path style="fill:#6A563D;" d="M432.842,478.993l45.653-45.653c7.786-6.94,19.731-6.679,27.2,0.791
	c7.743,7.744,7.743,20.297,0,28.041l-44.021,44.021c-3.871,3.871-8.946,5.807-14.021,5.807c-5.075,0-10.149-1.936-14.021-5.807
	C426.164,498.724,425.902,486.779,432.842,478.993z"/>
<polygon style="fill:#5AAAE7;" points="275.5,356.01 224.557,310.348 310.173,224.454 356.113,275.397 "/>
<rect x="43.891" y="395.692" transform="matrix(0.7071 0.7071 -0.7071 0.7071 329.74 72.6811)" style="fill:#554431;" width="66.49" height="77.361"/>
<g>
	<path style="fill:#4A3721;" d="M113.941,444.578l14.056-14.056l-47.015-47.015l-14.056,14.056
		C82.596,413.234,98.268,428.906,113.941,444.578z"/>
	<path style="fill:#4A3721;" d="M397.896,444.578l-14.056-14.056l47.015-47.015l14.056,14.056
		C429.24,413.234,413.568,428.906,397.896,444.578z"/>
</g>
<path style="fill:#C2DFF6;" d="M507.412,4.091c-3.223-3.223-7.814-4.67-12.303-3.878l-92.996,16.414
	c-11.515,2.033-22.009,7.89-29.782,16.626L110.432,326.135c12.861,12.861,25.721,25.721,38.582,38.582L508.459,5.272
	C508.132,4.863,507.787,4.466,507.412,4.091z"/>
<path style="fill:#B3D8F4;" d="M478.25,139.174c8.736-7.773,14.594-18.267,16.626-29.782l16.414-92.996
	c0.7-3.966-0.354-8.009-2.832-11.122L149.014,364.717c12.287,12.287,24.574,24.574,36.86,36.86L478.25,139.174z"/>
<path style="fill:#B39A7C;" d="M186.662,398.628l-73.787-73.787c-12.585-11.216-31.888-10.793-43.961,1.278
	c-12.515,12.515-12.515,32.806,0,45.321l71.149,71.149c6.258,6.257,14.458,9.386,22.661,9.386c8.203,0,16.403-3.129,22.661-9.386
	C197.456,430.517,197.879,411.212,186.662,398.628z"/>
<path style="fill:#6A563D;" d="M79.157,478.993L33.504,433.34c-7.786-6.94-19.731-6.679-27.2,0.791
	c-7.743,7.744-7.743,20.297,0,28.041l44.021,44.021c3.871,3.871,8.946,5.807,14.021,5.807c5.075,0,10.149-1.936,14.021-5.807
	C85.836,498.724,86.098,486.779,79.157,478.993z"/>
<g>
</g>
<g>
</g>
<g>
</g>
<g>
</g>
<g>
</g>
<g>
</g>
<g>
</g>
<g>
</g>
<g>
</g>
<g>
</g>
<g>
</g>
<g>
</g>
<g>
</g>
<g>
</g>
<g>
</g>
</svg>
