<svg id="Capa_1" enable-background="new 0 0 512 512" height="512" viewBox="0 0 512 512" width="512" xmlns="http://www.w3.org/2000/svg"><path d="m512 256c0 82.169-38.712 155.295-98.893 202.137-43.37 33.757-271.366 33.564-314.837-.486-59.825-46.861-98.27-119.766-98.27-201.651 0-141.385 114.615-256 256-256s256 114.615 256 256z" fill="#441c4e"/><path d="m86.817 216.176v181.959c0 5.523 4.477 10 10 10h141.981c5.656.571 11.395.865 17.202.865 93.437 0 169.183-75.746 169.183-169.183v-23.641z" fill="#f8a01a"/><path d="m85.984 199.08c23.326-6.25 64.936 2.868 71.186 26.194s-25.226 52.027-48.552 58.278c-23.326 6.25-29.668-12.318-35.919-35.644-6.25-23.327-10.041-42.578 13.285-48.828z" fill="#fbad7d"/><path d="m426.016 199.08c-23.326-6.25-64.936 2.868-71.186 26.194s25.226 52.027 48.552 58.278c23.326 6.25 29.668-12.318 35.919-35.644 6.25-23.327 10.041-42.578-13.285-48.828z" fill="#fbbd94"/><path d="m256 512c60.092 0 115.341-20.714 159.017-55.379-27.822-21.179-62.418-36.854-100.974-44.8-4.67-.962-8.043-5.036-8.043-9.803v-97.748h-100v97.748c0 4.768-3.373 8.841-8.043 9.803-38.556 7.946-73.151 23.621-100.974 44.8 43.676 34.665 98.925 55.379 159.017 55.379z" fill="#fbbd94"/><path d="m307.111 406.57c-.708-1.373-1.111-2.92-1.111-4.553v-97.747h-100v97.748c0 4.768-3.373 8.841-8.043 9.803-38.556 7.946-73.151 23.621-100.974 44.8 12.78 10.143 26.557 19.081 41.15 26.666 38.02-42.924 99.051-72.212 168.978-76.717z" fill="#fbad7d"/><path d="m311.734 411.042c-7.36 23.788-29.528 41.07-55.734 41.07s-48.374-17.282-55.734-41.07c-.724.344-1.495.611-2.309.779-38.556 7.946-73.151 23.621-100.974 44.8 43.676 34.665 98.925 55.379 159.017 55.379s115.341-20.714 159.017-55.379c-27.822-21.179-62.418-36.854-100.974-44.8-.814-.168-1.585-.435-2.309-.779z" fill="#58d0f5"/><path d="m101.528 460.14c.436.33.878.653 1.315.98 1.118.836 2.241 1.667 3.373 2.485.477.345.958.685 1.438 1.026 1.144.814 2.293 1.621 3.451 2.417.426.293.852.584 1.28.875 1.304.885 2.617 1.759 3.939 2.621.277.181.553.364.831.543 6.78 4.383 13.779 8.457 20.978 12.199 19.018-21.471 43.793-39.53 72.56-52.781-4.625-5.699-8.205-12.281-10.427-19.463-.329.156-.67.293-1.019.414-.062.022-.124.044-.186.064-.36.117-.726.223-1.104.301-21.688 4.47-42.122 11.385-60.803 20.35-6.227 2.988-12.259 6.204-18.078 9.633-7.758 4.572-15.137 9.523-22.093 14.817 1.501 1.191 3.017 2.362 4.545 3.519z" fill="#31b8cb"/><path d="m99.718 205.254c0-86.312 69.97-156.282 156.282-156.282s156.282 69.97 156.282 156.282-22.838 174.016-156.282 174.016-156.282-87.704-156.282-174.016z" fill="#fcd2ac"/><path d="m306.158 290.759c4.91 0 8.652 4.394 7.882 9.244-3.414 21.519-18.55 39.169-38.639 46.214-6.076 2.131-60.083-8.516-70.259-26.07-3.539-6.105-6.034-12.911-7.182-20.144-.77-4.85 2.972-9.244 7.882-9.244z" fill="#37143f"/><path d="m246.206 320.142h-41.066c10.177 17.547 29.156 29.383 50.86 29.383 6.797 0 13.321-1.173 19.399-3.305-1.644-14.671-14.084-26.078-29.193-26.078z" fill="#ff7e8c"/><path d="m225.133 320.142h-19.993c10.177 17.547 29.156 29.383 50.86 29.383 3.413 0 6.758-.297 10.012-.862-17.456-3.002-32.299-13.725-40.879-28.521z" fill="#f9624d"/><path d="m139.719 205.254v-104.405c-24.865 27.676-40 64.271-40 104.405 0 86.312 22.838 174.016 156.281 174.016 1.88 0 3.73-.023 5.566-.058 1-.02 1.985-.051 2.973-.081.738-.022 1.477-.043 2.208-.07 1.313-.05 2.614-.11 3.904-.178.31-.016.618-.033.927-.05 1.487-.084 2.963-.176 4.421-.282h.001c-115.75-8.453-136.281-91.493-136.281-173.297z" fill="#fbbd94"/><path d="m256 276.067c-8.45 0-15.461-6.534-16.056-14.963l-8.188-115.959c-.409-5.786 4.175-10.704 9.975-10.704h28.538c5.8 0 10.384 4.919 9.975 10.704l-8.188 115.959c-.595 8.43-7.606 14.963-16.056 14.963z" fill="#fbbd94"/><path d="m333.929 251.75c-2.56 0-5.118-.976-7.071-2.929l-12.374-12.375c-3.905-3.905-3.905-10.236 0-14.142l12.374-12.375c3.906-3.905 10.236-3.906 14.143 0 3.905 3.905 3.905 10.237 0 14.142l-5.304 5.304 5.304 5.304c3.905 3.905 3.905 10.237 0 14.142-1.954 1.952-4.514 2.929-7.072 2.929z" fill="#37143f"/><path d="m178.071 251.75c-2.56 0-5.118-.976-7.071-2.929-3.905-3.905-3.905-10.237 0-14.142l5.304-5.304-5.304-5.303c-3.905-3.905-3.905-10.237 0-14.142 3.907-3.904 10.237-3.905 14.143 0l12.374 12.375c3.905 3.905 3.905 10.236 0 14.142l-12.374 12.375c-1.954 1.951-4.512 2.928-7.072 2.928z" fill="#37143f"/><path d="m330.413 190.315h-126.042c-24.768 0-48.332-10.684-64.653-29.315v20.367c0 11.046-8.954 20-20 20h-39.957c2.085-95.918 81.165-173.207 177.76-172.388 96.932.822 175.371 82.471 174.75 179.405-.051 7.976-.299 15.639-.747 23.006-.517 8.492-10.772 12.462-16.908 6.569l-24.669-23.688c-16.008-15.372-37.341-23.956-59.534-23.956z" fill="#f8c14c"/><path d="m275.925 30.123c-6.048-.7-12.187-1.091-18.404-1.144-96.596-.819-175.675 76.47-177.76 172.388h39.957c.017 0 .033-.003.05-.003 1.93-88.658 69.637-161.388 156.157-171.241z" fill="#f8a01a"/></svg>