<svg id="Capa_1" enable-background="new 0 0 512 512" height="512" viewBox="0 0 512 512" width="512" xmlns="http://www.w3.org/2000/svg"><path d="m512 256c0 81.358-37.953 153.853-97.119 200.744-43.653 34.596-274.204 34.561-317.875-.09-59.102-46.894-97.006-119.347-97.006-200.654 0-141.385 114.615-256 256-256s256 114.615 256 256z" fill="#239bc0"/><path d="m256 512c60.092 0 115.341-20.714 159.017-55.379-27.822-21.179-62.418-36.854-100.974-44.8-4.67-.962-8.043-5.036-8.043-9.803v-97.748h-100v97.748c0 4.768-3.373 8.841-8.043 9.803-38.556 7.946-73.151 23.621-100.974 44.8 43.676 34.665 98.925 55.379 159.017 55.379z" fill="#fbbd94"/><path d="m307.111 406.57c-.708-1.373-1.111-2.92-1.111-4.553v-97.747h-100v97.748c0 4.768-3.373 8.841-8.043 9.803-38.556 7.946-73.151 23.621-100.974 44.8 12.78 10.143 26.557 19.081 41.15 26.666 38.02-42.924 99.051-72.212 168.978-76.717z" fill="#fbad7d"/><path d="m311.734 411.042c-7.36 23.788-29.528 41.07-55.734 41.07s-48.374-17.282-55.734-41.07c-.724.344-1.495.611-2.309.779-38.556 7.946-73.151 23.621-100.974 44.8 43.676 34.665 98.925 55.379 159.017 55.379s115.341-20.714 159.017-55.379c-27.822-21.179-62.418-36.854-100.974-44.8-.814-.168-1.585-.435-2.309-.779z" fill="#f1f4df"/><path d="m101.528 460.14c.436.33.878.653 1.315.98 1.118.836 2.241 1.667 3.373 2.485.477.345.958.685 1.438 1.026 1.144.814 2.293 1.621 3.451 2.417.426.293.852.584 1.28.875 1.304.885 2.617 1.759 3.939 2.621.277.181.553.364.831.543 6.78 4.383 13.779 8.457 20.978 12.199 19.018-21.471 43.793-39.53 72.56-52.781-4.625-5.699-8.205-12.281-10.427-19.463-.329.156-.67.293-1.019.414-.062.022-.124.044-.186.064-.36.117-.726.223-1.104.301-21.688 4.47-42.122 11.385-60.803 20.35-6.227 2.988-12.259 6.204-18.078 9.633-7.758 4.572-15.137 9.523-22.093 14.817 1.501 1.191 3.017 2.362 4.545 3.519z" fill="#dce5e0"/><path d="m85.984 199.08c23.326-6.25 64.936 2.868 71.186 26.194s-25.226 52.027-48.552 58.278c-23.326 6.25-29.668-12.318-35.919-35.644-6.25-23.327-10.041-42.578 13.285-48.828z" fill="#fbad7d"/><path d="m426.016 199.08c-23.326-6.25-64.936 2.868-71.186 26.194s25.226 52.027 48.552 58.278c23.326 6.25 29.668-12.318 35.919-35.644 6.25-23.327 10.041-42.578-13.285-48.828z" fill="#fbbd94"/><path d="m412.28 205.25c0 2.96-.03 5.91-.09 8.87-1.6 83.35-27.32 165.15-156.19 165.15-107.02 0-142.9-56.41-152.91-123.27-2.47-16.51-3.37-33.66-3.37-50.75 0-86.31 69.97-156.28 156.28-156.28s156.28 69.97 156.28 156.28z" fill="#fcd2ac"/><g fill="#fbbd94"><path d="m139.719 205.254v-104.405c-24.865 27.676-40 64.271-40 104.405 0 86.312 22.838 174.016 156.281 174.016 1.88 0 3.73-.023 5.566-.058 1-.02 1.985-.051 2.973-.081.738-.022 1.477-.043 2.208-.07 1.313-.05 2.614-.11 3.904-.178.31-.016.618-.033.927-.05 1.487-.084 2.963-.176 4.421-.282h.001c-115.75-8.453-136.281-91.493-136.281-173.297z"/><path d="m305.33 333.109c-2.969 0-5.779-1.773-6.958-4.695-7.023-17.405-23.655-28.651-42.372-28.651s-35.349 11.246-42.372 28.651c-1.55 3.839-5.918 5.7-9.762 4.148-3.841-1.55-5.698-5.92-4.148-9.762 9.325-23.107 31.417-38.038 56.282-38.038s46.957 14.931 56.282 38.038c1.55 3.841-.308 8.211-4.148 9.762-.92.371-1.87.547-2.804.547z"/><path d="m256 276.067c-8.45 0-15.461-6.534-16.056-14.963l-8.188-115.959c-.409-5.786 4.175-10.704 9.975-10.704h28.538c5.8 0 10.384 4.919 9.975 10.704l-8.188 115.959c-.595 8.43-7.606 14.963-16.056 14.963z"/></g><path d="m305.376 226.432c-.076 6.253 2.454 12.533 7.59 17.069 8.365 7.387 21.186 7.387 29.551 0 5.136-4.536 7.667-10.815 7.59-17.069-.099-8.121-10.073-12.018-15.815-6.276-3.618 3.618-9.483 3.618-13.101 0-5.742-5.742-15.716-1.844-15.815 6.276z" fill="#37143f"/><path d="m206.624 226.432c.076 6.253-2.454 12.533-7.59 17.069-8.365 7.387-21.186 7.387-29.551 0-5.136-4.536-7.667-10.815-7.59-17.069.099-8.121 10.072-12.018 15.815-6.276 3.618 3.618 9.483 3.618 13.101 0 5.742-5.742 15.716-1.844 15.815 6.276z" fill="#37143f"/><path d="m440.164 163.254c-22.631-77.389-96.624-134.284-184.164-134.284-95.9 0-174.16 76.98-176.24 172.4h19.96v3.88c0 17.09.9 34.24 3.37 50.75h16.71c11.046 0 20-8.954 20-20v-88.33c38.08 21.77 78.66 38.38 120.69 49.55 36.381 9.669 73.85 15.253 111.71 16.582v22.198c0 11.05 8.95 20 20 20h16.71c2.043-13.654 3-27.747 3.274-41.88h10.056c5.523 0 10-4.477 10-10v-2.77c-.188-8.607-1.006-17.062-2.391-25.326h.699c6.652 0 11.483-6.385 9.616-12.77z" fill="#b24a47"/><path d="m119.72 205.25c0-90.439 68.463-165.176 156.281-175.139-6.567-.745-13.238-1.141-20-1.141-95.9 0-174.16 76.98-176.24 172.4h19.96v3.88c0 17.09.9 34.24 3.37 50.75h16.63v-50.75z" fill="#9e3c33"/></svg>