<svg id="Capa_1" enable-background="new 0 0 512 512" height="512" viewBox="0 0 512 512" width="512" xmlns="http://www.w3.org/2000/svg"><path d="m512 256c0 81.603-38.181 154.288-97.653 201.166-43.569 34.343-273.162 34.329-316.738-.034-59.447-46.88-97.609-119.549-97.609-201.132 0-141.385 114.615-256 256-256s256 114.615 256 256z" fill="#e83c34"/><path d="m256 512c60.092 0 115.341-20.714 159.017-55.379-27.822-21.179-62.418-36.854-100.974-44.8-4.67-.962-8.043-5.036-8.043-9.803v-97.748h-100v97.748c0 4.768-3.373 8.841-8.043 9.803-38.556 7.946-73.151 23.621-100.974 44.8 43.676 34.665 98.925 55.379 159.017 55.379z" fill="#fbbd94"/><path d="m307.111 406.57c-.708-1.373-1.111-2.92-1.111-4.553v-97.747h-100v97.748c0 4.768-3.373 8.841-8.043 9.803-38.556 7.946-73.151 23.621-100.974 44.8 12.78 10.143 26.557 19.081 41.15 26.666 38.02-42.924 99.051-72.212 168.978-76.717z" fill="#fbad7d"/><path d="m311.734 411.042c-7.36 23.788-29.528 41.07-55.734 41.07s-48.374-17.282-55.734-41.07c-.724.344-1.495.611-2.309.779-38.556 7.946-73.151 23.621-100.974 44.8 43.676 34.665 98.925 55.379 159.017 55.379s115.341-20.714 159.017-55.379c-27.822-21.179-62.418-36.854-100.974-44.8-.814-.168-1.585-.435-2.309-.779z" fill="#fae17c"/><path d="m101.528 460.14c.436.33.878.653 1.315.98 1.118.836 2.241 1.667 3.373 2.485.477.345.958.685 1.438 1.026 1.144.814 2.293 1.621 3.451 2.417.426.293.852.584 1.28.875 1.304.885 2.617 1.759 3.939 2.621.277.181.553.364.831.543 6.78 4.383 13.779 8.457 20.978 12.199 19.018-21.471 43.793-39.53 72.56-52.781-4.625-5.699-8.205-12.281-10.427-19.463-.329.156-.67.293-1.019.414-.062.022-.124.044-.186.064-.36.117-.726.223-1.104.301-21.688 4.47-42.122 11.385-60.803 20.35-6.227 2.988-12.259 6.204-18.078 9.633-7.758 4.572-15.137 9.523-22.093 14.817 1.501 1.191 3.017 2.362 4.545 3.519z" fill="#f8c14c"/><path d="m85.984 199.08c23.326-6.25 64.936 2.868 71.186 26.194s-25.226 52.027-48.552 58.278c-23.326 6.25-29.668-12.318-35.919-35.644-6.25-23.327-10.041-42.578 13.285-48.828z" fill="#fbad7d"/><path d="m426.016 199.08c-23.326-6.25-64.936 2.868-71.186 26.194s25.226 52.027 48.552 58.278c23.326 6.25 29.668-12.318 35.919-35.644 6.25-23.327 10.041-42.578-13.285-48.828z" fill="#fbbd94"/><path d="m99.718 205.254c0-86.312 69.97-156.282 156.282-156.282s156.282 69.97 156.282 156.282-22.838 174.016-156.282 174.016-156.282-87.704-156.282-174.016z" fill="#fcd2ac"/><g fill="#fbbd94"><path d="m139.719 205.254v-104.405c-24.865 27.676-40 64.271-40 104.405 0 86.312 22.838 174.016 156.281 174.016 1.88 0 3.73-.023 5.566-.058 1-.02 1.985-.051 2.973-.081.738-.022 1.477-.043 2.208-.07 1.313-.05 2.614-.11 3.904-.178.31-.016.618-.033.927-.05 1.487-.084 2.963-.176 4.421-.282h.001c-115.75-8.453-136.281-91.493-136.281-173.297z"/><path d="m256 333.107c-24.865 0-46.957-14.931-56.282-38.038-1.55-3.841.307-8.211 4.148-9.762 3.839-1.551 8.211.307 9.762 4.148 7.024 17.405 23.656 28.651 42.372 28.651s35.348-11.247 42.372-28.651c1.551-3.841 5.92-5.698 9.762-4.148 3.841 1.55 5.699 5.921 4.148 9.762-9.325 23.107-31.417 38.038-56.282 38.038z"/><path d="m256 276.067c-8.45 0-15.461-6.534-16.056-14.963l-8.188-115.959c-.409-5.786 4.175-10.704 9.975-10.704h28.538c5.8 0 10.384 4.919 9.975 10.704l-8.188 115.959c-.595 8.43-7.606 14.963-16.056 14.963z"/></g><path d="m79.76 201.368c2.074-95.415 80.336-172.395 176.24-172.395 95.895 0 174.151 76.967 176.238 172.37l-20.044.024v12.754h-19.998c-11.046 0-20-8.954-20-20v-26.455c0-11.046-8.954-20-20-20h-192.393c-11.046 0-20 8.954-20 20v26.455c0 11.046-8.954 20-20 20h-19.998v-12.753z" fill="#441c4e"/><path d="m345.638 215.642c-4.368-4.476-10.597-7.127-17.436-6.702-11.139.691-20.204 9.757-20.896 20.896-.425 6.84 2.227 13.069 6.702 17.436 5.812 5.672 15.62 1.376 15.62-6.745 0-5.116 4.148-9.264 9.264-9.264 8.121-.001 12.418-9.809 6.746-15.621z" fill="#37143f"/><path d="m166.362 215.642c4.368-4.476 10.597-7.127 17.436-6.702 11.139.691 20.204 9.757 20.896 20.896.425 6.84-2.227 13.069-6.702 17.436-5.812 5.672-15.62 1.376-15.62-6.745 0-5.116-4.148-9.264-9.264-9.264-8.121-.001-12.418-9.809-6.746-15.621z" fill="#37143f"/><path d="m312.282 185h-112.564c-44.183 0-80-35.817-80-80 0-44.183 35.817-80 80-80h182.563c5.523 0 10 4.477 10 10v70c.001 44.183-35.817 80-79.999 80z" fill="#623a6c"/><path d="m159.719 105c0-44.183 35.817-80 80-80h-40c-44.183 0-80 35.817-80 80 0 44.183 35.817 80 80 80h40c-44.183 0-80-35.817-80-80z" fill="#441c4e"/></svg>