<?xml version="1.0"?>
<svg xmlns="http://www.w3.org/2000/svg" height="512px" viewBox="0 0 192 192" width="512px" class=""><g><path d="m189.167 109.971-90.51-90.51a8 8 0 0 0 -7.226-2.188l-28.9 5.779a131 131 0 0 1 7.857 16.671c2.967 7.525 5.241 14.8 6.812 20.363a15.989 15.989 0 1 1 -14.567 7.188c-3.649-13.974-9.763-30.374-16.769-40.887l-11 2.2a8 8 0 0 0 -6.275 6.276l-11.316 56.568a8 8 0 0 0 2.188 7.226l90.509 90.51a8 8 0 0 0 11.314 0l67.883-67.883a8 8 0 0 0 0-11.313z" data-original="#000000" class="active-path" data-old_color="#000000" fill="#1F76C1"/><path d="m15.724 33.434c-.5-3.381 1.5-7.344 5.933-11.777 7.316-7.317 11.487-6.1 12.859-5.695 3.877 1.138 7.731 5 11.348 10.425l16.671-3.335c-7.035-12.37-14.906-19.914-23.508-22.44-6.684-1.965-17.085-1.868-28.684 9.731-8.205 8.206-11.721 16.757-10.449 25.416 1.179 8.033 6.534 15.471 15.916 22.2l3.582-17.912a13.066 13.066 0 0 1 -3.668-6.613z" data-original="#000000" class="active-path" data-old_color="#000000" fill="#1F76C1"/><path d="m64.716 64.716a16.013 16.013 0 0 0 -2.079 2.558c.579 2.214 1.1 4.367 1.546 6.425a8 8 0 1 0 15.634-3.4c-.067-.313-.945-4.3-2.613-10.215a15.946 15.946 0 0 0 -12.488 4.632z" data-original="#000000" class="active-path" data-old_color="#000000" fill="#1F76C1"/></g> </svg>
